<?xml version="1.0" standalone="no"?>
 <!DOCTYPE svg PUBLIC "-//W3C//DTD SVG 1.1//EN" 
 "http://www.w3.org/Graphics/SVG/1.1/DTD/svg11.dtd"> 
<svg xmlns="http://www.w3.org/2000/svg" version="1.1" 
    width="6.44398cm" height="4.94538cm" viewBox="0 0 25370 19470 ">
<title>SVG Picture created as easyKernal-brd.svg date 2019/02/03 22:27:29 </title>
  <desc>Picture generated by PCBNEW </desc>
<g style="fill:#000000; fill-opacity:1;stroke:#000000; stroke-opacity:1;
stroke-linecap:round; stroke-linejoin:round; "
 transform="translate(0 0) scale(1 1)">
</g>
<g style="fill:#000000; fill-opacity:0.0; 
stroke:#000000; stroke-width:-0.000393701; stroke-opacity:1; 
stroke-linecap:round; stroke-linejoin:round;">
</g>
<g style="fill:#000000; fill-opacity:0.0; 
stroke:#000000; stroke-width:78.7402; stroke-opacity:1; 
stroke-linecap:round; stroke-linejoin:round;">
<path d="M16090 15062
L16090 8062
" />
<path d="M23090 15062
L16090 15062
" />
<path d="M23090 7062
L23090 15062
" />
<path d="M17090 7062
L23090 7062
" />
<path d="M16090 8062
L17090 7062
" />
</g>
<g style="fill:#000000; fill-opacity:0.0; 
stroke:#000000; stroke-width:118.11; stroke-opacity:1; 
stroke-linecap:round; stroke-linejoin:round;">
<path d="M7860 3552
L7803 3580
L7691 3580
L7635 3552
L7607 3495
L7607 3270
L7635 3214
L7691 3186
L7803 3186
L7860 3214
L7888 3270
L7888 3327
L7607 3383
" />
<path d="M8394 3580
L8394 3270
L8366 3214
L8310 3186
L8197 3186
L8141 3214
" />
<path d="M8394 3552
L8338 3580
L8197 3580
L8141 3552
L8113 3495
L8113 3439
L8141 3383
L8197 3355
L8338 3355
L8394 3327
" />
<path d="M8647 3552
L8703 3580
L8816 3580
L8872 3552
L8900 3495
L8900 3467
L8872 3411
L8816 3383
L8732 3383
L8675 3355
L8647 3298
L8647 3270
L8675 3214
L8732 3186
L8816 3186
L8872 3214
" />
<path d="M9097 3186
L9238 3580
" />
<path d="M9378 3186
L9238 3580
L9181 3720
L9153 3748
L9097 3776
" />
<path d="M10053 3580
L10053 2989
" />
<path d="M10109 3355
L10278 3580
" />
<path d="M10278 3186
L10053 3411
" />
<path d="M10756 3552
L10700 3580
L10588 3580
L10531 3552
L10503 3495
L10503 3270
L10531 3214
L10588 3186
L10700 3186
L10756 3214
L10784 3270
L10784 3327
L10503 3383
" />
<path d="M11037 3580
L11037 3186
" />
<path d="M11037 3298
L11066 3242
L11094 3214
L11150 3186
L11206 3186
" />
<path d="M11403 3186
L11403 3580
" />
<path d="M11403 3242
L11431 3214
L11487 3186
L11572 3186
L11628 3214
L11656 3270
L11656 3580
" />
<path d="M12190 3580
L12190 3270
L12162 3214
L12106 3186
L11994 3186
L11937 3214
" />
<path d="M12190 3552
L12134 3580
L11994 3580
L11937 3552
L11909 3495
L11909 3439
L11937 3383
L11994 3355
L12134 3355
L12190 3327
" />
<path d="M12556 3580
L12500 3552
L12472 3495
L12472 2989
" />
<path d="M13231 3355
L13681 3355
" />
<path d="M14412 3580
L14412 2989
" />
<path d="M14412 3214
L14468 3186
L14581 3186
L14637 3214
L14665 3242
L14693 3298
L14693 3467
L14665 3523
L14637 3552
L14581 3580
L14468 3580
L14412 3552
" />
<path d="M14890 3186
L15031 3580
" />
<path d="M15171 3186
L15031 3580
L14974 3720
L14946 3748
L14890 3776
" />
<path d="M15790 3186
L16099 3186
L15790 3580
L16099 3580
" />
<path d="M16296 3552
L16352 3580
L16465 3580
L16521 3552
L16549 3495
L16549 3467
L16521 3411
L16465 3383
L16381 3383
L16324 3355
L16296 3298
L16296 3270
L16324 3214
L16381 3186
L16465 3186
L16521 3214
" />
<path d="M17055 3552
L16999 3580
L16887 3580
L16830 3552
L16802 3523
L16774 3467
L16774 3298
L16802 3242
L16830 3214
L16887 3186
L16999 3186
L17055 3214
" />
<path d="M17309 3580
L17309 2989
" />
<path d="M17562 3580
L17562 3270
L17534 3214
L17477 3186
L17393 3186
L17337 3214
L17309 3242
" />
<path d="M18096 3186
L18096 3580
" />
<path d="M17843 3186
L17843 3495
L17871 3552
L17927 3580
L18012 3580
L18068 3552
L18096 3523
" />
<path d="M18377 3186
L18377 3580
" />
<path d="M18377 3242
L18405 3214
L18462 3186
L18546 3186
L18602 3214
L18630 3270
L18630 3580
" />
<path d="M18911 3580
L18911 2989
" />
<path d="M18968 3355
L19136 3580
" />
<path d="M19136 3186
L18911 3411
" />
<path d="M19333 3186
L19474 3580
" />
<path d="M19615 3186
L19474 3580
L19418 3720
L19390 3748
L19333 3776
" />
<path d="M20289 3355
L20739 3355
" />
<path d="M21414 3186
L21555 3580
L21696 3186
" />
<path d="M22033 2989
L22089 2989
L22145 3017
L22174 3045
L22202 3102
L22230 3214
L22230 3355
L22202 3467
L22174 3523
L22145 3552
L22089 3580
L22033 3580
L21977 3552
L21949 3523
L21920 3467
L21892 3355
L21892 3214
L21920 3102
L21949 3045
L21977 3017
L22033 2989
" />
<path d="M22483 3523
L22511 3552
L22483 3580
L22455 3552
L22483 3523
L22483 3580
" />
<path d="M22736 3045
L22764 3017
L22820 2989
L22961 2989
L23017 3017
L23045 3045
L23073 3102
L23073 3158
L23045 3242
L22708 3580
L23073 3580
" />
<path d="M2432 13103
L2826 13103
" />
<path d="M2207 13243
L2629 13384
L2629 13018
" />
<path d="M2826 12484
L2826 12822
" />
<path d="M2826 12653
L2235 12653
L2320 12709
L2376 12765
L2404 12822
" />
<path d="M2798 12203
L2826 12203
L2882 12231
L2910 12259
" />
<path d="M2291 11978
L2263 11950
L2235 11894
L2235 11753
L2263 11697
L2291 11669
L2348 11641
L2404 11641
L2488 11669
L2826 12006
L2826 11641
" />
<path d="M2235 11444
L2235 11050
L2826 11303
" />
<path d="M2235 10544
L2235 10825
L2516 10853
L2488 10825
L2460 10769
L2460 10628
L2488 10572
L2516 10544
L2573 10516
L2713 10516
L2769 10544
L2798 10572
L2826 10628
L2826 10769
L2798 10825
L2769 10853
" />
<path d="M2826 9813
L2432 9813
" />
<path d="M2488 9813
L2460 9785
L2432 9728
L2432 9644
L2460 9588
L2516 9560
L2826 9560
" />
<path d="M2516 9560
L2460 9531
L2432 9475
L2432 9391
L2460 9335
L2516 9306
L2826 9306
" />
<path d="M2826 9025
L2432 9025
" />
<path d="M2488 9025
L2460 8997
L2432 8941
L2432 8857
L2460 8800
L2516 8772
L2826 8772
" />
<path d="M2516 8772
L2460 8744
L2432 8688
L2432 8603
L2460 8547
L2516 8519
L2826 8519
" />
<path d="M3090 19062
L3090 2812
" />
<path d="M4590 19062
L2027 19062
" />
<path d="M4590 2812
L2027 2812
" />
<path d="M3090 2812
L3321 3256
" />
<path d="M3090 2812
L2859 3256
" />
<path d="M3090 19062
L3321 18619
" />
<path d="M3090 19062
L2859 18619
" />
<path d="M12828 208
L12547 208
L12518 489
L12547 461
L12603 433
L12743 433
L12800 461
L12828 489
L12856 545
L12856 686
L12828 742
L12800 770
L12743 798
L12603 798
L12547 770
L12518 742
" />
<path d="M13081 264
L13109 236
L13165 208
L13306 208
L13362 236
L13390 264
L13418 320
L13418 376
L13390 461
L13053 798
L13418 798
" />
<path d="M13700 770
L13700 798
L13671 854
L13643 883
" />
<path d="M13896 208
L14290 208
L14037 798
" />
<path d="M14628 208
L14684 208
L14740 236
L14768 264
L14796 320
L14824 433
L14824 573
L14796 686
L14768 742
L14740 770
L14684 798
L14628 798
L14571 770
L14543 742
L14515 686
L14487 573
L14487 433
L14515 320
L14543 264
L14571 236
L14628 208
" />
<path d="M15359 208
L15078 208
L15049 489
L15078 461
L15134 433
L15274 433
L15331 461
L15359 489
L15387 545
L15387 686
L15359 742
L15331 770
L15274 798
L15134 798
L15078 770
L15049 742
" />
<path d="M16090 798
L16090 404
" />
<path d="M16090 461
L16118 433
L16174 404
L16259 404
L16315 433
L16343 489
L16343 798
" />
<path d="M16343 489
L16371 433
L16427 404
L16512 404
L16568 433
L16596 489
L16596 798
" />
<path d="M16877 798
L16877 404
" />
<path d="M16877 461
L16905 433
L16962 404
L17046 404
L17102 433
L17130 489
L17130 798
" />
<path d="M17130 489
L17159 433
L17215 404
L17299 404
L17355 433
L17383 489
L17383 798
" />
<path d="M4590 1062
L25340 1062
" />
<path d="M4590 2812
L4590 0
" />
<path d="M25340 2812
L25340 0
" />
<path d="M25340 1062
L24897 1293
" />
<path d="M25340 1062
L24897 832
" />
<path d="M4590 1062
L5034 1293
" />
<path d="M4590 1062
L5034 832
" />
</g>
<g style="fill:#000000; fill-opacity:0.0; 
stroke:#000000; stroke-width:39.3701; stroke-opacity:1; 
stroke-linecap:round; stroke-linejoin:round;">
<path d="M9663 9899
L9663 10726
" />
<path d="M9663 10726
L11001 10726
" />
<path d="M11001 10726
L11001 9899
" />
<path d="M11001 9899
L9663 9899
" />
<path d="M7927 12240
L8753 12240
" />
<path d="M8753 12240
L8753 10901
" />
<path d="M8753 10901
L7927 10901
" />
<path d="M7927 10901
L7927 12240
" />
<path d="M7927 14490
L8753 14490
" />
<path d="M8753 14490
L8753 13151
" />
<path d="M8753 13151
L7927 13151
" />
<path d="M7927 13151
L7927 14490
" />
<path d="M10755 11797
L10755 14257
" />
<path d="M8925 11797
L8925 14257
" />
<path d="M10627 11846
L10627 14208
" />
<path d="M9053 11846
L9053 14208
" />
<path d="M10755.9 11797.2 A915.354 915.354 0.0 0 0 8925.2 11797.2 " />
<path d="M8925.2 14257.9 A915.354 915.354 0.0 0 0 10755.9 14257.9 " />
<path d="M10628 11846.5 A787.402 787.402 0.0 0 0 9053.15 11846.5 " />
<path d="M9053.15 14208.7 A787.402 787.402 0.0 0 0 10628 14208.7 " />
<path d="M5590 8062
L6340 8062
" />
<path d="M6340 8062
L6340 15062
" />
<path d="M6340 15062
L5340 15062
" />
<path d="M5340 15062
L5340 8312
" />
<path d="M5340 8312
L5590 8062
" />
<path d="M5590 15462
L6340 15462
" />
<path d="M6340 15462
L6340 18462
" />
<path d="M6340 18462
L5340 18462
" />
<path d="M5340 18462
L5340 15712
" />
<path d="M5340 15712
L5590 15462
" />
<circle cx="7090.55" cy="12563" r="314.961" /> 
<path d="M7090 12562
L7090 11562
" />
<circle cx="7090.55" cy="14563" r="314.961" /> 
<path d="M7090 14562
L7090 13562
" />
<circle cx="7840.55" cy="4562.99" r="314.961" /> 
<path d="M7840 4562
L8840 4562
" />
<circle cx="9840.55" cy="7312.99" r="314.961" /> 
<path d="M9840 7312
L10840 7312
" />
<circle cx="7840.55" cy="9312.99" r="314.961" /> 
<path d="M7840 9312
L8840 9312
" />
<circle cx="7590.55" cy="15813" r="314.961" /> 
<path d="M7590 15812
L8590 15812
" />
<circle cx="7590.55" cy="16813" r="314.961" /> 
<path d="M7590 16812
L8590 16812
" />
<circle cx="7590.55" cy="17813" r="314.961" /> 
<path d="M7590 17812
L8590 17812
" />
<path d="M9840 4312
L10840 4312
" />
<circle cx="9840.55" cy="4312.99" r="393.701" /> 
<path d="M9840 8312
L10840 8312
" />
<circle cx="9840.55" cy="8312.99" r="393.701" /> 
<path d="M9840 9312
L10840 9312
" />
<circle cx="9840.55" cy="9312.99" r="393.701" /> 
<path d="M9590 15812
L10590 15812
" />
<circle cx="9590.55" cy="15813" r="393.701" /> 
<path d="M9590 16812
L10590 16812
" />
<circle cx="9590.55" cy="16813" r="393.701" /> 
<path d="M9590 17812
L10590 17812
" />
<circle cx="9590.55" cy="17813" r="393.701" /> 
<path d="M23540 13912
L24290 13912
" />
<path d="M24290 13912
L24290 16912
" />
<path d="M24290 16912
L23290 16912
" />
<path d="M23290 16912
L23290 14162
" />
<path d="M23290 14162
L23540 13912
" />
<path d="M7090 5312
L7840 5312
" />
<path d="M7840 5312
L7840 8312
" />
<path d="M7840 8312
L6840 8312
" />
<path d="M6840 8312
L6840 5562
" />
<path d="M6840 5562
L7090 5312
" />
<path d="M18340 4062
L19090 4062
" />
<path d="M19090 4062
L19090 7062
" />
<path d="M19090 7062
L18090 7062
" />
<path d="M18090 7062
L18090 4312
" />
<path d="M18090 4312
L18340 4062
" />
<path d="M21090 4712
L21840 4712
" />
<path d="M21840 4712
L21840 6712
" />
<path d="M21840 6712
L20840 6712
" />
<path d="M20840 6712
L20840 4962
" />
<path d="M20840 4962
L21090 4712
" />
<path d="M8840 8312
L8090 8312
" />
<path d="M8090 8312
L8090 5312
" />
<path d="M8090 5312
L9090 5312
" />
<path d="M9090 5312
L9090 8062
" />
<path d="M9090 8062
L8840 8312
" />
<path d="M17084 4062
L22490 4062
" />
<path d="M22490 4062
L22490 18062
" />
<path d="M22490 18062
L16690 18062
" />
<path d="M16690 18062
L16690 4456
" />
<path d="M16690 4456
L17084 4062
" />
<path d="M16090 4039
L16090 18086
" />
<path d="M16090 18086
L23090 18086
" />
<path d="M23090 18086
L23090 4039
" />
<path d="M23090 4039
L16090 4039
" />
<path d="M12484 4062
L14590 4062
" />
<path d="M14590 4062
L14590 18062
" />
<path d="M14590 18062
L12090 18062
" />
<path d="M12090 18062
L12090 4456
" />
<path d="M12090 4456
L12484 4062
" />
<path d="M23590 3962
L24340 3962
" />
<path d="M24340 3962
L24340 7962
" />
<path d="M24340 7962
L23340 7962
" />
<path d="M23340 7962
L23340 4212
" />
<path d="M23340 4212
L23590 3962
" />
<circle cx="9840.55" cy="5362.99" r="314.961" /> 
<path d="M9840 5362
L10840 5362
" />
<circle cx="9840.55" cy="6362.99" r="314.961" /> 
<path d="M9840 6362
L10840 6362
" />
<path d="M24203 12035
L23377 12035
" />
<path d="M23377 12035
L23377 13374
" />
<path d="M23377 13374
L24203 13374
" />
<path d="M24203 13374
L24203 12035
" />
<path d="M18253 16385
L17427 16385
" />
<path d="M17427 16385
L17427 17724
" />
<path d="M17427 17724
L18253 17724
" />
<path d="M18253 17724
L18253 16385
" />
<circle cx="23790.6" cy="11313" r="314.961" /> 
<path d="M23790 11312
L23790 10312
" />
<circle cx="18790.6" cy="16563" r="314.961" /> 
<path d="M18790 16562
L18790 17562
" />
<path d="M5640 3662
L6390 3662
" />
<path d="M6390 3662
L6390 7662
" />
<path d="M6390 7662
L5390 7662
" />
<path d="M5390 7662
L5390 3912
" />
<path d="M5390 3912
L5640 3662
" />
<circle cx="19790.6" cy="17663" r="314.961" /> 
<path d="M19790 17662
L19790 16662
" />
</g>
<g style="fill:#000000; fill-opacity:0.0; 
stroke:#000000; stroke-width:59.0551; stroke-opacity:1; 
stroke-linecap:round; stroke-linejoin:round;">
<path d="M19656 12487
L19656 12300
" />
<path d="M19768 12525
L19374 12394
L19768 12262
" />
<path d="M19768 12131
L19374 12131
L19656 12000
L19374 11869
L19768 11869
" />
<path d="M19412 11700
L19393 11681
L19374 11644
L19374 11550
L19393 11512
L19412 11494
L19449 11475
L19487 11475
L19543 11494
L19768 11719
L19768 11475
" />
<path d="M19768 11287
L19768 11212
L19749 11175
L19731 11156
L19674 11119
L19599 11100
L19449 11100
L19412 11119
L19393 11137
L19374 11175
L19374 11250
L19393 11287
L19412 11306
L19449 11325
L19543 11325
L19581 11306
L19599 11287
L19618 11250
L19618 11175
L19599 11137
L19581 11119
L19543 11100
" />
<path d="M19562 10800
L19562 10931
" />
<path d="M19768 10931
L19374 10931
L19374 10744
" />
<path d="M19374 10519
L19374 10481
L19393 10444
L19412 10425
L19449 10406
L19524 10388
L19618 10388
L19693 10406
L19731 10425
L19749 10444
L19768 10481
L19768 10519
L19749 10556
L19731 10575
L19693 10594
L19618 10613
L19524 10613
L19449 10594
L19412 10575
L19393 10556
L19374 10519
" />
<path d="M19506 10050
L19768 10050
" />
<path d="M19356 10144
L19637 10238
L19637 9994
" />
<path d="M19374 9769
L19374 9731
L19393 9694
L19412 9675
L19449 9656
L19524 9638
L19618 9638
L19693 9656
L19731 9675
L19749 9694
L19768 9731
L19768 9769
L19749 9806
L19731 9825
L19693 9844
L19618 9863
L19524 9863
L19449 9844
L19412 9825
L19393 9806
L19374 9769
" />
<path d="M9899 10491
L9675 10491
" />
<path d="M9787 10491
L9787 10097
L9749 10153
L9712 10191
L9675 10209
" />
<path d="M10143 10097
L10181 10097
L10218 10116
L10237 10134
L10256 10172
L10274 10247
L10274 10341
L10256 10416
L10237 10453
L10218 10472
L10181 10491
L10143 10491
L10106 10472
L10087 10453
L10068 10416
L10049 10341
L10049 10247
L10068 10172
L10087 10134
L10106 10116
L10143 10097
" />
<path d="M10518 10097
L10556 10097
L10593 10116
L10612 10134
L10631 10172
L10649 10247
L10649 10341
L10631 10416
L10612 10453
L10593 10472
L10556 10491
L10518 10491
L10481 10472
L10462 10453
L10443 10416
L10424 10341
L10424 10247
L10443 10172
L10462 10134
L10481 10116
L10518 10097
" />
<path d="M10818 10228
L10818 10491
" />
<path d="M10818 10266
L10837 10247
L10874 10228
L10931 10228
L10968 10247
L10987 10284
L10987 10491
" />
<path d="M8162 12041
L8143 12022
L8124 11984
L8124 11891
L8143 11853
L8162 11834
L8199 11816
L8237 11816
L8293 11834
L8518 12059
L8518 11816
" />
<path d="M8162 11666
L8143 11647
L8124 11609
L8124 11516
L8143 11478
L8162 11459
L8199 11441
L8237 11441
L8293 11459
L8518 11684
L8518 11441
" />
<path d="M8256 11272
L8649 11272
" />
<path d="M8274 11272
L8256 11234
L8256 11159
L8274 11122
L8293 11103
L8331 11084
L8443 11084
L8481 11103
L8499 11122
L8518 11159
L8518 11234
L8499 11272
" />
<path d="M8112 14241
L8093 14222
L8074 14184
L8074 14091
L8093 14053
L8112 14034
L8149 14016
L8187 14016
L8243 14034
L8468 14259
L8468 14016
" />
<path d="M8112 13866
L8093 13847
L8074 13809
L8074 13716
L8093 13678
L8112 13659
L8149 13641
L8187 13641
L8243 13659
L8468 13884
L8468 13641
" />
<path d="M8206 13472
L8599 13472
" />
<path d="M8224 13472
L8206 13434
L8206 13359
L8224 13322
L8243 13303
L8281 13284
L8393 13284
L8431 13303
L8449 13322
L8468 13359
L8468 13434
L8449 13472
" />
<path d="M9662 13803
L9643 13784
L9624 13747
L9624 13653
L9643 13616
L9662 13597
L9699 13578
L9737 13578
L9793 13597
L10018 13822
L10018 13578
" />
<path d="M9624 13334
L9624 13297
L9643 13259
L9662 13241
L9699 13222
L9774 13203
L9868 13203
L9943 13222
L9981 13241
L9999 13259
L10018 13297
L10018 13334
L9999 13372
L9981 13391
L9943 13409
L9868 13428
L9774 13428
L9699 13409
L9662 13391
L9643 13372
L9624 13334
" />
<path d="M10018 13034
L9624 13034
L9906 12903
L9624 12772
L10018 12772
" />
<path d="M10018 12584
L9624 12584
" />
<path d="M9812 12584
L9812 12359
" />
<path d="M10018 12359
L9624 12359
" />
<path d="M9756 12209
L9756 12003
L10018 12209
L10018 12003
" />
<path d="M6018 11297
L6018 11522
" />
<path d="M6018 11409
L5624 11409
L5681 11447
L5718 11484
L5737 11522
" />
<path d="M6018 11166
L5756 10959
" />
<path d="M5756 11166
L6018 10959
" />
<path d="M5624 10847
L5624 10584
L6018 10753
" />
<path d="M5624 13194
L5906 13194
L5962 13212
L5999 13250
L6018 13306
L6018 13344
" />
<path d="M5662 13025
L5643 13006
L5624 12969
L5624 12875
L5643 12838
L5662 12819
L5699 12800
L5737 12800
L5793 12819
L6018 13044
L6018 12800
" />
<path d="M6018 16547
L6018 16772
" />
<path d="M6018 16659
L5624 16659
L5681 16697
L5718 16734
L5737 16772
" />
<path d="M6018 16416
L5756 16209
" />
<path d="M5756 16416
L6018 16209
" />
<path d="M5624 16097
L5624 15853
L5774 15984
L5774 15928
L5793 15891
L5812 15872
L5849 15853
L5943 15853
L5981 15872
L5999 15891
L6018 15928
L6018 16041
L5999 16078
L5981 16097
" />
<path d="M5624 17944
L5906 17944
L5962 17962
L5999 18000
L6018 18056
L6018 18094
" />
<path d="M5624 17794
L5624 17550
L5774 17681
L5774 17625
L5793 17588
L5812 17569
L5849 17550
L5943 17550
L5981 17569
L5999 17588
L6018 17625
L6018 17738
L5999 17775
L5981 17794
" />
<path d="M7618 11859
L7618 12084
" />
<path d="M7618 11972
L7224 11972
L7281 12009
L7318 12047
L7337 12084
" />
<path d="M7618 11691
L7224 11691
" />
<path d="M7468 11653
L7618 11541
" />
<path d="M7356 11541
L7506 11691
" />
<path d="M7618 13859
L7618 14084
" />
<path d="M7618 13972
L7224 13972
L7281 14009
L7318 14047
L7337 14084
" />
<path d="M7618 13691
L7224 13691
" />
<path d="M7468 13653
L7618 13541
" />
<path d="M7356 13541
L7506 13691
" />
<path d="M8406 5041
L8181 5041
" />
<path d="M8293 5041
L8293 4647
L8256 4703
L8218 4741
L8181 4759
" />
<path d="M8649 4647
L8687 4647
L8724 4666
L8743 4684
L8762 4722
L8781 4797
L8781 4891
L8762 4966
L8743 5003
L8724 5022
L8687 5041
L8649 5041
L8612 5022
L8593 5003
L8574 4966
L8556 4891
L8556 4797
L8574 4722
L8593 4684
L8612 4666
L8649 4647
" />
<path d="M8949 5041
L8949 4647
" />
<path d="M8987 4891
L9099 5041
" />
<path d="M9099 4778
L8949 4928
" />
<path d="M10456 7791
L10231 7791
" />
<path d="M10343 7791
L10343 7397
L10306 7453
L10268 7491
L10231 7509
" />
<path d="M10699 7397
L10737 7397
L10774 7416
L10793 7434
L10812 7472
L10831 7547
L10831 7641
L10812 7716
L10793 7753
L10774 7772
L10737 7791
L10699 7791
L10662 7772
L10643 7753
L10624 7716
L10606 7641
L10606 7547
L10624 7472
L10643 7434
L10662 7416
L10699 7397
" />
<path d="M10999 7791
L10999 7397
" />
<path d="M11037 7641
L11149 7791
" />
<path d="M11149 7528
L10999 7678
" />
<path d="M8468 9791
L8243 9791
" />
<path d="M8356 9791
L8356 9397
L8318 9453
L8281 9491
L8243 9509
" />
<path d="M8712 9397
L8749 9397
L8787 9416
L8806 9434
L8824 9472
L8843 9547
L8843 9641
L8824 9716
L8806 9753
L8787 9772
L8749 9791
L8712 9791
L8674 9772
L8656 9753
L8637 9716
L8618 9641
L8618 9547
L8637 9472
L8656 9434
L8674 9416
L8712 9397
" />
<path d="M9012 9791
L9012 9397
" />
<path d="M9237 9791
L9068 9566
" />
<path d="M9237 9397
L9012 9622
" />
<path d="M8218 16341
L7993 16341
" />
<path d="M8106 16341
L8106 15947
L8068 16003
L8031 16041
L7993 16059
" />
<path d="M8462 15947
L8499 15947
L8537 15966
L8556 15984
L8574 16022
L8593 16097
L8593 16191
L8574 16266
L8556 16303
L8537 16322
L8499 16341
L8462 16341
L8424 16322
L8406 16303
L8387 16266
L8368 16191
L8368 16097
L8387 16022
L8406 15984
L8424 15966
L8462 15947
" />
<path d="M8762 16341
L8762 15947
" />
<path d="M8987 16341
L8818 16116
" />
<path d="M8987 15947
L8762 16172
" />
<path d="M8218 17391
L7993 17391
" />
<path d="M8106 17391
L8106 16997
L8068 17053
L8031 17091
L7993 17109
" />
<path d="M8462 16997
L8499 16997
L8537 17016
L8556 17034
L8574 17072
L8593 17147
L8593 17241
L8574 17316
L8556 17353
L8537 17372
L8499 17391
L8462 17391
L8424 17372
L8406 17353
L8387 17316
L8368 17241
L8368 17147
L8387 17072
L8406 17034
L8424 17016
L8462 16997
" />
<path d="M8762 17391
L8762 16997
" />
<path d="M8987 17391
L8818 17166
" />
<path d="M8987 16997
L8762 17222
" />
<path d="M8218 18341
L7993 18341
" />
<path d="M8106 18341
L8106 17947
L8068 18003
L8031 18041
L7993 18059
" />
<path d="M8462 17947
L8499 17947
L8537 17966
L8556 17984
L8574 18022
L8593 18097
L8593 18191
L8574 18266
L8556 18303
L8537 18322
L8499 18341
L8462 18341
L8424 18322
L8406 18303
L8387 18266
L8368 18191
L8368 18097
L8387 18022
L8406 17984
L8424 17966
L8462 17947
" />
<path d="M8762 18341
L8762 17947
" />
<path d="M8987 18341
L8818 18116
" />
<path d="M8987 17947
L8762 18172
" />
<path d="M10349 4791
L10349 4397
L10443 4397
L10499 4416
L10537 4453
L10556 4491
L10574 4566
L10574 4622
L10556 4697
L10537 4734
L10499 4772
L10443 4791
L10349 4791
" />
<path d="M10949 4791
L10724 4791
" />
<path d="M10837 4791
L10837 4397
L10799 4453
L10762 4491
L10724 4509
" />
<path d="M10349 8791
L10349 8397
L10443 8397
L10499 8416
L10537 8453
L10556 8491
L10574 8566
L10574 8622
L10556 8697
L10537 8734
L10499 8772
L10443 8791
L10349 8791
" />
<path d="M10724 8434
L10743 8416
L10781 8397
L10874 8397
L10912 8416
L10931 8434
L10949 8472
L10949 8509
L10931 8566
L10706 8791
L10949 8791
" />
<path d="M10349 9791
L10349 9397
L10443 9397
L10499 9416
L10537 9453
L10556 9491
L10574 9566
L10574 9622
L10556 9697
L10537 9734
L10499 9772
L10443 9791
L10349 9791
" />
<path d="M10706 9397
L10949 9397
L10818 9547
L10874 9547
L10912 9566
L10931 9584
L10949 9622
L10949 9716
L10931 9753
L10912 9772
L10874 9791
L10762 9791
L10724 9772
L10706 9753
" />
<path d="M10149 16341
L10149 15947
L10243 15947
L10299 15966
L10337 16003
L10356 16041
L10374 16116
L10374 16172
L10356 16247
L10337 16284
L10299 16322
L10243 16341
L10149 16341
" />
<path d="M10712 16078
L10712 16341
" />
<path d="M10618 15928
L10524 16209
L10768 16209
" />
<path d="M10149 17341
L10149 16947
L10243 16947
L10299 16966
L10337 17003
L10356 17041
L10374 17116
L10374 17172
L10356 17247
L10337 17284
L10299 17322
L10243 17341
L10149 17341
" />
<path d="M10731 16947
L10543 16947
L10524 17134
L10543 17116
L10581 17097
L10674 17097
L10712 17116
L10731 17134
L10749 17172
L10749 17266
L10731 17303
L10712 17322
L10674 17341
L10581 17341
L10543 17322
L10524 17303
" />
<path d="M10149 18341
L10149 17947
L10243 17947
L10299 17966
L10337 18003
L10356 18041
L10374 18116
L10374 18172
L10356 18247
L10337 18284
L10299 18322
L10243 18341
L10149 18341
" />
<path d="M10712 17947
L10637 17947
L10599 17966
L10581 17984
L10543 18041
L10524 18116
L10524 18266
L10543 18303
L10562 18322
L10599 18341
L10674 18341
L10712 18322
L10731 18303
L10749 18266
L10749 18172
L10731 18134
L10712 18116
L10674 18097
L10599 18097
L10562 18116
L10543 18134
L10524 18172
" />
<path d="M24018 14797
L24018 15022
" />
<path d="M24018 14909
L23624 14909
L23681 14947
L23718 14984
L23737 15022
" />
<path d="M24018 14666
L23756 14459
" />
<path d="M23756 14666
L24018 14459
" />
<path d="M23624 14347
L23624 14103
L23774 14234
L23774 14178
L23793 14141
L23812 14122
L23849 14103
L23943 14103
L23981 14122
L23999 14141
L24018 14178
L24018 14291
L23999 14328
L23981 14347
" />
<path d="M23624 16391
L23906 16391
L23962 16409
L23999 16447
L24018 16503
L24018 16541
" />
<path d="M24018 16203
L23624 16203
L23624 16053
L23643 16016
L23662 15997
L23699 15978
L23756 15978
L23793 15997
L23812 16016
L23831 16053
L23831 16203
" />
<path d="M24018 15603
L24018 15828
" />
<path d="M24018 15716
L23624 15716
L23681 15753
L23718 15791
L23737 15828
" />
<path d="M7518 6297
L7518 6522
" />
<path d="M7518 6409
L7124 6409
L7181 6447
L7218 6484
L7237 6522
" />
<path d="M7518 6166
L7256 5959
" />
<path d="M7256 6166
L7518 5959
" />
<path d="M7124 5847
L7124 5603
L7274 5734
L7274 5678
L7293 5641
L7312 5622
L7349 5603
L7443 5603
L7481 5622
L7499 5641
L7518 5678
L7518 5791
L7499 5828
L7481 5847
" />
<path d="M7124 7891
L7406 7891
L7462 7909
L7499 7947
L7518 8003
L7518 8041
" />
<path d="M7518 7703
L7124 7703
L7124 7553
L7143 7516
L7162 7497
L7199 7478
L7256 7478
L7293 7497
L7312 7516
L7331 7553
L7331 7703
" />
<path d="M7162 7328
L7143 7309
L7124 7272
L7124 7178
L7143 7141
L7162 7122
L7199 7103
L7237 7103
L7293 7122
L7518 7347
L7518 7103
" />
<path d="M18768 5047
L18768 5272
" />
<path d="M18768 5159
L18374 5159
L18431 5197
L18468 5234
L18487 5272
" />
<path d="M18768 4916
L18506 4709
" />
<path d="M18506 4916
L18768 4709
" />
<path d="M18374 4597
L18374 4353
L18524 4484
L18524 4428
L18543 4391
L18562 4372
L18599 4353
L18693 4353
L18731 4372
L18749 4391
L18768 4428
L18768 4541
L18749 4578
L18731 4597
" />
<path d="M18374 6641
L18656 6641
L18712 6659
L18749 6697
L18768 6753
L18768 6791
" />
<path d="M18768 6453
L18374 6453
L18374 6303
L18393 6266
L18412 6247
L18449 6228
L18506 6228
L18543 6247
L18562 6266
L18581 6303
L18581 6453
" />
<path d="M18374 6097
L18374 5853
L18524 5984
L18524 5928
L18543 5891
L18562 5872
L18599 5853
L18693 5853
L18731 5872
L18749 5891
L18768 5928
L18768 6041
L18749 6078
L18731 6097
" />
<path d="M22268 5797
L22268 6022
" />
<path d="M22268 5909
L21874 5909
L21931 5947
L21968 5984
L21987 6022
" />
<path d="M22268 5666
L22006 5459
" />
<path d="M22006 5666
L22268 5459
" />
<path d="M21912 5328
L21893 5309
L21874 5272
L21874 5178
L21893 5141
L21912 5122
L21949 5103
L21987 5103
L22043 5122
L22268 5347
L22268 5103
" />
<path d="M21124 5891
L21406 5891
L21462 5909
L21499 5947
L21518 6003
L21518 6041
" />
<path d="M21518 5703
L21124 5703
L21124 5553
L21143 5516
L21162 5497
L21199 5478
L21256 5478
L21293 5497
L21312 5516
L21331 5553
L21331 5703
" />
<path d="M21256 5141
L21518 5141
" />
<path d="M21106 5234
L21387 5328
L21387 5084
" />
<path d="M8768 6297
L8768 6522
" />
<path d="M8768 6409
L8374 6409
L8431 6447
L8468 6484
L8487 6522
" />
<path d="M8768 6166
L8506 5959
" />
<path d="M8506 6166
L8768 5959
" />
<path d="M8374 5847
L8374 5603
L8524 5734
L8524 5678
L8543 5641
L8562 5622
L8599 5603
L8693 5603
L8731 5622
L8749 5641
L8768 5678
L8768 5791
L8749 5828
L8731 5847
" />
<path d="M8374 7891
L8656 7891
L8712 7909
L8749 7947
L8768 8003
L8768 8041
" />
<path d="M8768 7703
L8374 7703
L8374 7553
L8393 7516
L8412 7497
L8449 7478
L8506 7478
L8543 7497
L8562 7516
L8581 7553
L8581 7703
" />
<path d="M8374 7122
L8374 7309
L8562 7328
L8543 7309
L8524 7272
L8524 7178
L8543 7141
L8562 7122
L8599 7103
L8693 7103
L8731 7122
L8749 7141
L8768 7178
L8768 7272
L8749 7309
L8731 7328
" />
<path d="M18165 18658
L18034 18470
" />
<path d="M17940 18658
L17940 18264
L18090 18264
L18128 18283
L18146 18302
L18165 18339
L18165 18395
L18146 18433
L18128 18452
L18090 18470
L17940 18470
" />
<path d="M18409 18264
L18484 18264
L18521 18283
L18559 18320
L18578 18395
L18578 18527
L18559 18602
L18521 18639
L18484 18658
L18409 18658
L18371 18639
L18334 18602
L18315 18527
L18315 18395
L18334 18320
L18371 18283
L18409 18264
" />
<path d="M18746 18658
L18746 18264
L18878 18545
L19009 18264
L19009 18658
" />
<path d="M19178 18639
L19234 18658
L19328 18658
L19365 18639
L19384 18620
L19403 18583
L19403 18545
L19384 18508
L19365 18489
L19328 18470
L19253 18452
L19215 18433
L19196 18414
L19178 18377
L19178 18339
L19196 18302
L19215 18283
L19253 18264
L19346 18264
L19403 18283
" />
<path d="M19646 18264
L19721 18264
L19759 18283
L19796 18320
L19815 18395
L19815 18527
L19796 18602
L19759 18639
L19721 18658
L19646 18658
L19609 18639
L19571 18602
L19553 18527
L19553 18395
L19571 18320
L19609 18283
L19646 18264
" />
<path d="M20209 18620
L20190 18639
L20134 18658
L20096 18658
L20040 18639
L20002 18602
L19984 18564
L19965 18489
L19965 18433
L19984 18358
L20002 18320
L20040 18283
L20096 18264
L20134 18264
L20190 18283
L20209 18302
" />
<path d="M20377 18658
L20377 18264
" />
<path d="M20602 18658
L20434 18433
" />
<path d="M20602 18264
L20377 18489
" />
<path d="M20771 18452
L20902 18452
" />
<path d="M20959 18658
L20771 18658
L20771 18264
L20959 18264
" />
<path d="M21071 18264
L21296 18264
" />
<path d="M21184 18658
L21184 18264
" />
<path d="M13456 14472
L13456 14284
" />
<path d="M13568 14509
L13174 14378
L13568 14247
" />
<path d="M13174 14172
L13174 13947
" />
<path d="M13568 14059
L13174 14059
" />
<path d="M13568 13815
L13174 13815
L13456 13684
L13174 13553
L13568 13553
" />
<path d="M13362 13365
L13362 13234
" />
<path d="M13568 13178
L13568 13365
L13174 13365
L13174 13178
" />
<path d="M13193 12803
L13174 12841
L13174 12897
L13193 12953
L13231 12991
L13268 13009
L13343 13028
L13399 13028
L13474 13009
L13512 12991
L13549 12953
L13568 12897
L13568 12859
L13549 12803
L13531 12784
L13399 12784
L13399 12859
" />
<path d="M13456 12634
L13456 12447
" />
<path d="M13568 12672
L13174 12541
L13568 12409
" />
<path d="M13306 12109
L13568 12109
" />
<path d="M13156 12203
L13437 12297
L13437 12053
" />
<path d="M13343 11847
L13324 11884
L13306 11903
L13268 11922
L13249 11922
L13212 11903
L13193 11884
L13174 11847
L13174 11772
L13193 11734
L13212 11716
L13249 11697
L13268 11697
L13306 11716
L13324 11734
L13343 11772
L13343 11847
L13362 11884
L13381 11903
L13418 11922
L13493 11922
L13531 11903
L13549 11884
L13568 11847
L13568 11772
L13549 11734
L13531 11716
L13493 11697
L13418 11697
L13381 11716
L13362 11734
L13343 11772
" />
<path d="M13418 11528
L13418 11228
" />
<path d="M13212 11059
L13193 11041
L13174 11003
L13174 10910
L13193 10872
L13212 10853
L13249 10835
L13287 10835
L13343 10853
L13568 11078
L13568 10835
" />
<path d="M13174 10591
L13174 10553
L13193 10516
L13212 10497
L13249 10478
L13324 10460
L13418 10460
L13493 10478
L13531 10497
L13549 10516
L13568 10553
L13568 10591
L13549 10628
L13531 10647
L13493 10666
L13418 10685
L13324 10685
L13249 10666
L13212 10647
L13193 10628
L13174 10591
" />
<path d="M13568 10291
L13174 10291
L13174 10141
L13193 10103
L13212 10085
L13249 10066
L13306 10066
L13343 10085
L13362 10103
L13381 10141
L13381 10291
" />
<path d="M13174 9897
L13493 9897
L13531 9878
L13549 9860
L13568 9822
L13568 9747
L13549 9710
L13531 9691
L13493 9672
L13174 9672
" />
<path d="M24018 5547
L24018 5772
" />
<path d="M24018 5659
L23624 5659
L23681 5697
L23718 5734
L23737 5772
" />
<path d="M24018 5416
L23756 5209
" />
<path d="M23756 5416
L24018 5209
" />
<path d="M23756 4891
L24018 4891
" />
<path d="M23606 4984
L23887 5078
L23887 4834
" />
<path d="M23624 7194
L23906 7194
L23962 7212
L23999 7250
L24018 7306
L24018 7344
" />
<path d="M23756 6838
L24018 6838
" />
<path d="M23606 6931
L23887 7025
L23887 6781
" />
<path d="M10387 5628
L10387 5891
" />
<path d="M10293 5478
L10199 5759
L10443 5759
" />
<path d="M10593 5853
L10612 5872
L10593 5891
L10574 5872
L10593 5853
L10593 5891
" />
<path d="M10743 5497
L11006 5497
L10837 5891
" />
<path d="M11156 5891
L11156 5497
" />
<path d="M11381 5891
L11212 5666
" />
<path d="M11381 5497
L11156 5722
" />
<path d="M10437 6628
L10437 6891
" />
<path d="M10343 6478
L10249 6759
L10493 6759
" />
<path d="M10643 6853
L10662 6872
L10643 6891
L10624 6872
L10643 6853
L10643 6891
" />
<path d="M10793 6497
L11056 6497
L10887 6891
" />
<path d="M11206 6891
L11206 6497
" />
<path d="M11431 6891
L11262 6666
" />
<path d="M11431 6497
L11206 6722
" />
<path d="M23918 13059
L23918 13284
" />
<path d="M23918 13172
L23524 13172
L23581 13209
L23618 13247
L23637 13284
" />
<path d="M23881 12891
L23899 12872
L23918 12891
L23899 12909
L23881 12891
L23918 12891
" />
<path d="M23562 12722
L23543 12703
L23524 12666
L23524 12572
L23543 12534
L23562 12516
L23599 12497
L23637 12497
L23693 12516
L23918 12741
L23918 12497
" />
<path d="M23656 12328
L23918 12328
" />
<path d="M23693 12328
L23674 12309
L23656 12272
L23656 12216
L23674 12178
L23712 12159
L23918 12159
" />
<path d="M17712 17728
L17693 17709
L17674 17672
L17674 17578
L17693 17541
L17712 17522
L17749 17503
L17787 17503
L17843 17522
L18068 17747
L18068 17503
" />
<path d="M17712 17353
L17693 17334
L17674 17297
L17674 17203
L17693 17166
L17712 17147
L17749 17128
L17787 17128
L17843 17147
L18068 17372
L18068 17128
" />
<path d="M17674 16884
L17674 16847
L17693 16809
L17712 16791
L17749 16772
L17824 16753
L17918 16753
L17993 16772
L18031 16791
L18049 16809
L18068 16847
L18068 16884
L18049 16922
L18031 16941
L17993 16959
L17918 16978
L17824 16978
L17749 16959
L17712 16941
L17693 16922
L17674 16884
" />
<path d="M17806 16584
L18199 16584
" />
<path d="M17824 16584
L17806 16547
L17806 16472
L17824 16434
L17843 16416
L17881 16397
L17993 16397
L18031 16416
L18049 16434
L18068 16472
L18068 16547
L18049 16584
" />
<path d="M24318 10725
L24318 10950
" />
<path d="M24318 10837
L23924 10837
L23981 10875
L24018 10912
L24037 10950
" />
<path d="M23924 10481
L23924 10444
L23943 10406
L23962 10388
L23999 10369
L24074 10350
L24168 10350
L24243 10369
L24281 10388
L24299 10406
L24318 10444
L24318 10481
L24299 10519
L24281 10537
L24243 10556
L24168 10575
L24074 10575
L23999 10556
L23962 10537
L23943 10519
L23924 10481
" />
<path d="M23924 10106
L23924 10069
L23943 10031
L23962 10013
L23999 9994
L24074 9975
L24168 9975
L24243 9994
L24281 10013
L24299 10031
L24318 10069
L24318 10106
L24299 10144
L24281 10163
L24243 10181
L24168 10200
L24074 10200
L23999 10181
L23962 10163
L23943 10144
L23924 10106
" />
<path d="M19318 17725
L19318 17950
" />
<path d="M19318 17837
L18924 17837
L18981 17875
L19018 17912
L19037 17950
" />
<path d="M18924 17481
L18924 17444
L18943 17406
L18962 17388
L18999 17369
L19074 17350
L19168 17350
L19243 17369
L19281 17388
L19299 17406
L19318 17444
L19318 17481
L19299 17519
L19281 17537
L19243 17556
L19168 17575
L19074 17575
L18999 17556
L18962 17537
L18943 17519
L18924 17481
" />
<path d="M18924 17106
L18924 17069
L18943 17031
L18962 17013
L18999 16994
L19074 16975
L19168 16975
L19243 16994
L19281 17013
L19299 17031
L19318 17069
L19318 17106
L19299 17144
L19281 17163
L19243 17181
L19168 17200
L19074 17200
L18999 17181
L18962 17163
L18943 17144
L18924 17106
" />
<path d="M6018 5297
L6018 5522
" />
<path d="M6018 5409
L5624 5409
L5681 5447
L5718 5484
L5737 5522
" />
<path d="M6018 5166
L5756 4959
" />
<path d="M5756 5166
L6018 4959
" />
<path d="M5756 4641
L6018 4641
" />
<path d="M5606 4734
L5887 4828
L5887 4584
" />
<path d="M5624 6694
L5906 6694
L5962 6712
L5999 6750
L6018 6806
L6018 6844
" />
<path d="M6018 6300
L6018 6525
" />
<path d="M6018 6413
L5624 6413
L5681 6450
L5718 6488
L5737 6525
" />
<path d="M19962 17200
L19943 17181
L19924 17144
L19924 17050
L19943 17012
L19962 16994
L19999 16975
L20037 16975
L20093 16994
L20318 17219
L20318 16975
" />
<path d="M19924 16844
L19924 16581
L20318 16750
" />
<path d="M19924 16356
L19924 16319
L19943 16281
L19962 16263
L19999 16244
L20074 16225
L20168 16225
L20243 16244
L20281 16263
L20299 16281
L20318 16319
L20318 16356
L20299 16394
L20281 16413
L20243 16431
L20168 16450
L20074 16450
L19999 16431
L19962 16413
L19943 16394
L19924 16356
" />
<path d="M5090.55 2812.99 A500 500 0.0 0 0 4590.55 3312.99 " />
<path d="M4590 18562
L4590 3312
" />
<path d="M4590.55 18563 A500 500 0.0 0 0 5090.55 19063 " />
<path d="M24840 19062
L5090 19062
" />
<path d="M24840.6 19063 A500 500 0.0 0 0 25340.6 18563 " />
<path d="M25340 3312
L25340 18562
" />
<path d="M25340.6 3312.99 A500 500 0.0 0 0 24840.6 2812.99 " />
<path d="M5090 2812
L24840 2812
" />
</g> 
</svg>
